<svg aria-hidden="true" style="width:0;height:0;position:absolute;overflow:hidden" xmlns="http://www.w3.org/2000/svg"><defs><symbol id="icon-reviewellipse" viewBox="0 0 32 32"><path fill="#1111111a" d="M16 32c8.837 0 16-7.163 16-16S24.837 0 16 0 0 7.163 0 16s7.163 16 16 16z"/></symbol><symbol id="icon-Rectanglereview" viewBox="0 0 69 32"><path fill="#fd9222" style="fill:var(--color1,#fd9222)" d="M52.923 0H16C7.163 0 0 7.163 0 16s7.163 16 16 16h36.923c8.837 0 16-7.163 16-16s-7.163-16-16-16z"/></symbol><symbol id="icon-Ukraine" viewBox="0 0 41 32"><path fill="gold" style="fill:var(--color2,gold)" d="M40.745 1.355H.311v30.09h40.434V1.355z"/><path fill="#0057b7" style="fill:var(--color3,#0057b7)" d="M.311 1.355h40.434V16.4H.311V1.355z"/></symbol><symbol id="icon-mastercard" viewBox="0 0 49 32"><path fill="#fafafa" style="fill:var(--color1,#fafafa)" d="M6.095.762h36.571a5.333 5.333 0 0 1 5.333 5.333v19.81a5.333 5.333 0 0 1-5.333 5.333H6.095a5.333 5.333 0 0 1-5.333-5.333V6.095A5.333 5.333 0 0 1 6.095.762z"/><path fill="#ed0006" style="fill:var(--color2,#ed0006)" d="M24.381 23.29a10.302 10.302 0 0 1-6.578 2.345c-5.601 0-10.141-4.396-10.141-9.818s4.54-9.818 10.141-9.818c2.51 0 4.807.883 6.578 2.345a10.302 10.302 0 0 1 6.578-2.345c5.601 0 10.141 4.395 10.141 9.818s-4.54 9.818-10.141 9.818c-2.51 0-4.807-.883-6.578-2.345z"/><path fill="#f9a000" style="fill:var(--color3,#f9a000)" d="M24.381 23.29c2.18-1.801 3.563-4.48 3.563-7.472s-1.383-5.672-3.563-7.472a10.302 10.302 0 0 1 6.578-2.345c5.601 0 10.141 4.395 10.141 9.818s-4.54 9.818-10.141 9.818c-2.51 0-4.807-.883-6.578-2.345z"/><path fill="#ff5e00" style="fill:var(--color4,#ff5e00)" d="M24.381 23.29c2.18-1.801 3.563-4.48 3.563-7.472s-1.383-5.671-3.563-7.472c-2.18 1.801-3.563 4.48-3.563 7.472s1.383 5.672 3.563 7.472z"/><path fill="none" stroke="#fafafa" style="stroke:var(--color1,#fafafa)" stroke-width="1.524" d="M6.095.762h36.571a5.333 5.333 0 0 1 5.333 5.333v19.81a5.333 5.333 0 0 1-5.333 5.333H6.095a5.333 5.333 0 0 1-5.333-5.333V6.095A5.333 5.333 0 0 1 6.095.762z"/></symbol></defs></svg>